<?xml version="1.0" encoding="utf-8"?>
<!-- Generator: Adobe Illustrator 23.0.1, SVG Export Plug-In . SVG Version: 6.00 Build 0)  -->
<svg version="1.1" id="Layer_1" xmlns="http://www.w3.org/2000/svg" xmlns:xlink="http://www.w3.org/1999/xlink" x="0px" y="0px"
	 viewBox="0 0 9 9" style="enable-background:new 0 0 9 9;" xml:space="preserve">
<style type="text/css">
	.st0{fill:#1C3359;}
</style>
<path class="st0" d="M4.5,0C2,0,0,1.6,0,3.6c0,1.8,1.6,3.2,3.8,3.5c0.1,0,0.3,0.1,0.4,0.2c0,0.1,0,0.3,0,0.4L4.1,8.1
	c0,0.1-0.1,0.4,0.4,0.2C5,8.1,7.1,6.8,8,5.8c0.6-0.7,1-1.4,1-2.2C9,1.6,7,0,4.5,0z M2.7,4.7H1.8c-0.1,0-0.2-0.1-0.2-0.2V2.8
	c0-0.1,0.1-0.2,0.2-0.2c0.1,0,0.2,0.1,0.2,0.2v1.5h0.7C2.9,4.3,3,4.4,3,4.5C3,4.6,2.9,4.7,2.7,4.7z M3.7,4.5c0,0.1-0.1,0.2-0.2,0.2
	c-0.1,0-0.2-0.1-0.2-0.2V2.8c0-0.1,0.1-0.2,0.2-0.2c0.1,0,0.2,0.1,0.2,0.2V4.5z M5.8,4.5c0,0.1-0.1,0.2-0.2,0.2c0,0,0,0-0.1,0
	c-0.1,0-0.1,0-0.2-0.1L4.5,3.4v1.1c0,0.1-0.1,0.2-0.2,0.2C4.1,4.7,4,4.6,4,4.5V2.8c0-0.1,0.1-0.2,0.2-0.2c0,0,0.1,0,0.1,0
	c0.1,0,0.1,0,0.2,0.1l0.9,1.2V2.8c0-0.1,0.1-0.2,0.2-0.2c0.1,0,0.2,0.1,0.2,0.2V4.5z M7.3,3.4c0.1,0,0.2,0.1,0.2,0.2
	c0,0.1-0.1,0.2-0.2,0.2H6.6v0.4h0.7c0.1,0,0.2,0.1,0.2,0.2c0,0.1-0.1,0.2-0.2,0.2H6.4c-0.1,0-0.2-0.1-0.2-0.2V2.8
	c0-0.1,0.1-0.2,0.2-0.2h0.9c0.1,0,0.2,0.1,0.2,0.2C7.5,2.9,7.4,3,7.3,3H6.6v0.4H7.3z"/>
</svg>
