<svg width="9" height="9" viewBox="0 0 9 9" fill="none" xmlns="http://www.w3.org/2000/svg">
<path d="M4.5 0C2.01938 0 0 1.60344 0 3.57401C0 5.33896 1.60125 6.81771 3.76312 7.0988C3.90975 7.12906 4.10925 7.19359 4.15987 7.31536C4.20487 7.42583 4.1895 7.59646 4.17412 7.71167L4.11263 8.08573C4.09575 8.1962 4.02262 8.52068 4.506 8.32234C4.99012 8.12474 7.0995 6.82609 8.0445 5.76333C8.691 5.07062 9 4.36078 9 3.57401C9 1.60344 6.98063 0 4.5 0ZM2.73863 4.74578H1.84387C1.7145 4.74578 1.60763 4.64115 1.60763 4.515V2.76464C1.60763 2.63812 1.7145 2.53349 1.84387 2.53349C1.97437 2.53349 2.08012 2.63812 2.08012 2.76464V4.28385H2.73863C2.86912 4.28385 2.9745 4.38776 2.9745 4.515C2.9745 4.64115 2.86875 4.74578 2.73863 4.74578ZM3.66337 4.515C3.66337 4.64115 3.55762 4.74578 3.42675 4.74578C3.29737 4.74578 3.19162 4.64115 3.19162 4.515V2.76464C3.19162 2.63812 3.29737 2.53349 3.42788 2.53349C3.55762 2.53349 3.66337 2.63812 3.66337 2.76464V4.515ZM5.81625 4.515C5.81625 4.61417 5.751 4.70203 5.65425 4.73375C5.63025 4.74141 5.60437 4.74505 5.57963 4.74505C5.5005 4.74505 5.433 4.71187 5.38838 4.65318L4.47225 3.4362V4.51464C4.47225 4.64078 4.36763 4.74542 4.23563 4.74542C4.10588 4.74542 4.00087 4.64078 4.00087 4.51464V2.76464C4.00087 2.66547 4.06575 2.5776 4.16213 2.54625C4.18463 2.53786 4.21313 2.53422 4.23488 2.53422C4.308 2.53422 4.3755 2.5725 4.4205 2.62755L5.34375 3.84927V2.76464C5.34375 2.63812 5.4495 2.53349 5.58 2.53349C5.70937 2.53349 5.81625 2.63812 5.81625 2.76464V4.515ZM7.26188 3.40849C7.39275 3.40849 7.49813 3.51312 7.49813 3.64C7.49813 3.76651 7.39275 3.87115 7.26188 3.87115H6.60375V4.28385H7.26188C7.39275 4.28385 7.49813 4.38776 7.49813 4.515C7.49813 4.64115 7.39275 4.74578 7.26188 4.74578H6.36713C6.23775 4.74578 6.132 4.64115 6.132 4.515V2.76464C6.132 2.63812 6.23775 2.53349 6.36825 2.53349H7.263C7.39275 2.53349 7.49813 2.63812 7.49813 2.76464C7.49813 2.8926 7.39275 2.99578 7.26188 2.99578H6.60375V3.40849H7.26188Z" fill="#7FBC00"/>
</svg>
