<svg width="10" height="10" viewBox="0 0 10 10" fill="none" xmlns="http://www.w3.org/2000/svg">
<path d="M9.29538 5.0626C9.19204 4.61364 8.82481 4.28247 8.3828 4.23317C7.33634 4.11627 6.27664 4.11572 5.22213 4.11627C4.16718 4.11572 3.1077 4.11627 2.06091 4.23317C1.61912 4.28258 1.2521 4.61375 1.14888 5.0626C1.00176 5.7019 1 6.39976 1 7.05803C1 7.7163 1 8.41406 1.14712 9.05336C1.25034 9.5022 1.61736 9.83338 2.05936 9.88278C3.10594 9.99979 4.16541 10.0002 5.22025 9.99979C6.27521 10.0003 7.33446 9.99979 8.38136 9.88278C8.82315 9.83338 9.19039 9.5022 9.29361 9.05336C9.44062 8.41406 9.44139 7.7163 9.44139 7.05803C9.44128 6.39965 9.44238 5.7019 9.29538 5.0626ZM3.40778 5.55809H2.79682V8.80456H2.22931V5.55809H1.62949V5.02632H3.40778V5.55809ZM4.94918 8.80467H4.43869V8.49754C4.23588 8.73001 4.04333 8.84338 3.85574 8.84338C3.69131 8.84338 3.57816 8.77677 3.5271 8.63418C3.49931 8.54904 3.48211 8.41428 3.48211 8.21555V5.98941H3.99216V8.06215C3.99216 8.18169 3.99216 8.24378 3.99679 8.26054C4.00903 8.33973 4.04774 8.37987 4.11612 8.37987C4.21846 8.37987 4.32543 8.30102 4.43858 8.141V5.98941H4.94907L4.94918 8.80467ZM6.88716 7.9597C6.88716 8.22007 6.86963 8.40766 6.83555 8.52698C6.76739 8.73641 6.63098 8.84338 6.42806 8.84338C6.24653 8.84338 6.07141 8.74258 5.9008 8.53195V8.80478H5.39075V5.02632H5.9008V6.26026C6.06556 6.05745 6.24047 5.95489 6.42806 5.95489C6.63098 5.95489 6.7675 6.06175 6.83555 6.2725C6.86985 6.38576 6.88716 6.57191 6.88716 6.83846V7.9597ZM8.81234 7.49001H7.79213V7.98903C7.79213 8.24963 7.87738 8.37976 8.05273 8.37976C8.17834 8.37976 8.25145 8.31149 8.28057 8.17519C8.28531 8.1475 8.29204 8.03414 8.29204 7.82956H8.81245V7.904C8.81245 8.06843 8.80617 8.18169 8.80154 8.23264C8.78444 8.34557 8.7443 8.44802 8.68243 8.53823C8.54116 8.74269 8.33185 8.84349 8.06541 8.84349C7.79853 8.84349 7.59539 8.74744 7.44794 8.55522C7.33976 8.41428 7.28417 8.19239 7.28417 7.8932V6.90717C7.28417 6.60621 7.33347 6.38609 7.44188 6.24382C7.58921 6.05116 7.79224 5.95522 8.05284 5.95522C8.3088 5.95522 8.51172 6.05116 8.65464 6.24382C8.7615 6.38609 8.81256 6.60621 8.81256 6.90717V7.49001H8.81234Z" fill="#7FBC00"/>
<path d="M8.04893 6.41431C7.87844 6.41431 7.79297 6.54455 7.79297 6.80481V7.0653H8.30302V6.80481C8.30291 6.54455 8.21766 6.41431 8.04893 6.41431Z" fill="#7FBC00"/>
<path d="M6.15676 6.41431C6.07273 6.41431 5.98759 6.45401 5.90234 6.53837V8.25424C5.98748 8.3396 6.07273 8.37996 6.15676 8.37996C6.30388 8.37996 6.37865 8.25424 6.37865 8.00004V6.79842C6.37865 6.54455 6.30388 6.41431 6.15676 6.41431Z" fill="#7FBC00"/>
<path d="M6.44032 3.85697C6.62835 3.85697 6.82399 3.74272 7.02923 3.5076V3.81793H7.54479V0.972778H7.02923V3.14731C6.91498 3.30876 6.80668 3.38861 6.70357 3.38861C6.63453 3.38861 6.59395 3.3478 6.5827 3.26785C6.57641 3.25097 6.57641 3.18822 6.57641 3.06747V0.972778H6.0625V3.22252C6.0625 3.42345 6.0797 3.55943 6.10816 3.64556C6.15999 3.7897 6.27435 3.85697 6.44032 3.85697Z" fill="#7FBC00"/>
<path d="M2.85093 2.27158V3.81784H3.42263V2.27158L4.11035 0H3.53225L3.14219 1.49928L2.73635 0H2.13477C2.2553 0.353894 2.38069 0.709552 2.50123 1.06378C2.68463 1.59622 2.7991 1.99764 2.85093 2.27158Z" fill="#7FBC00"/>
<path d="M4.87684 3.85683C5.13512 3.85683 5.33583 3.75968 5.4782 3.56558C5.58639 3.42321 5.63822 3.19889 5.63822 2.8965V1.90022C5.63822 1.59606 5.5865 1.37373 5.4782 1.23004C5.33583 1.03539 5.13523 0.938232 4.87684 0.938232C4.61988 0.938232 4.41928 1.03539 4.27658 1.23004C4.16707 1.37373 4.11523 1.59606 4.11523 1.90022V2.8965C4.11523 3.19889 4.16707 3.42321 4.27658 3.56558C4.41917 3.75968 4.61988 3.85683 4.87684 3.85683ZM4.6308 1.79688C4.6308 1.53364 4.71064 1.40241 4.87684 1.40241C5.04303 1.40241 5.12266 1.53353 5.12266 1.79688V2.99366C5.12266 3.2569 5.04303 3.38858 4.87684 3.38858C4.71064 3.38858 4.6308 3.2569 4.6308 2.99366V1.79688Z" fill="#7FBC00"/>
</svg>
