<?xml version="1.0" encoding="utf-8"?>
<!-- Generator: Adobe Illustrator 16.0.0, SVG Export Plug-In . SVG Version: 6.00 Build 0)  -->
<!DOCTYPE svg PUBLIC "-//W3C//DTD SVG 1.1//EN" "http://www.w3.org/Graphics/SVG/1.1/DTD/svg11.dtd">
<svg version="1.1" id="Layer_1" xmlns="http://www.w3.org/2000/svg" xmlns:xlink="http://www.w3.org/1999/xlink" x="0px" y="0px"
	 width="10px" height="10px" viewBox="0 0 10 10" enable-background="new 0 0 10 10" xml:space="preserve">
<path fill="none" stroke="#1C3359" stroke-miterlimit="10" d="M1.076,1.817v6.251c0,0,0.399,0.858,0.828,0.796
	c0.429-0.061,6.251,0.005,6.251,0.005S8.952,8.62,8.922,7.854c-0.031-0.767,0-6.037,0-6.037S8.676,1.021,8.124,1.143
	C7.573,1.266,1.781,1.13,1.781,1.13S1.076,1.174,1.076,1.817z"/>
<ellipse fill="none" stroke="#1C3359" stroke-miterlimit="10" cx="5.105" cy="5.005" rx="1.945" ry="1.901"/>
<circle fill="#1C3359" cx="7.566" cy="2.524" r="0.516"/>
<path fill="#1C3359" d="M-5.1,0.3v1.5h0.6V0.3L-3.9-2h-0.6l-0.4,1.5L-5.3-2h-0.6c0.1,0.4,0.2,0.7,0.4,1.1C-5.3-0.4-5.2,0-5.1,0.3z"
	/>
</svg>
