<?xml version="1.0" encoding="utf-8"?>
<!-- Generator: Adobe Illustrator 23.0.1, SVG Export Plug-In . SVG Version: 6.00 Build 0)  -->
<svg version="1.1" id="Layer_1" xmlns="http://www.w3.org/2000/svg" xmlns:xlink="http://www.w3.org/1999/xlink" x="0px" y="0px"
	 viewBox="0 0 8 8" style="enable-background:new 0 0 8 8;" xml:space="preserve">
<style type="text/css">
	.st0{clip-path:url(#SVGID_2_);}
	.st1{fill:#1C3359;}
</style>
<g>
	<defs>
		<rect id="SVGID_1_" width="8" height="8"/>
	</defs>
	<clipPath id="SVGID_2_">
		<use xlink:href="#SVGID_1_"  style="overflow:visible;"/>
	</clipPath>
	<g class="st0">
		<path class="st1" d="M8,1.5C7.7,1.6,7.4,1.7,7.1,1.8c0.3-0.2,0.6-0.5,0.7-0.9c-0.3,0.2-0.7,0.3-1,0.4C6.4,0.9,6,0.8,5.5,0.8
			c-0.9,0-1.6,0.7-1.6,1.6c0,0.1,0,0.3,0,0.4C2.6,2.7,1.4,2,0.6,1C0.4,1.3,0.3,1.6,0.3,1.9c0,0.6,0.3,1.1,0.7,1.4
			C0.8,3.2,0.5,3.2,0.3,3c0,0,0,0,0,0c0,0.8,0.6,1.5,1.3,1.6c-0.1,0-0.3,0.1-0.4,0.1c-0.1,0-0.2,0-0.3,0c0.2,0.6,0.8,1.1,1.5,1.1
			c-0.6,0.4-1.3,0.7-2,0.7c-0.1,0-0.3,0-0.4,0C0.7,7,1.6,7.3,2.5,7.3c3,0,4.7-2.5,4.7-4.7c0-0.1,0-0.1,0-0.2C7.5,2.1,7.8,1.9,8,1.5z
			"/>
	</g>
</g>
</svg>
