<svg width="8" height="8" viewBox="0 0 8 8" fill="none" xmlns="http://www.w3.org/2000/svg">
<g clip-path="url(#clip0)">
<path d="M8 1.5195C7.7025 1.65 7.3855 1.7365 7.055 1.7785C7.395 1.5755 7.6545 1.2565 7.7765 0.872C7.4595 1.061 7.1095 1.1945 6.7365 1.269C6.4355 0.9485 6.0065 0.75 5.5385 0.75C4.6305 0.75 3.8995 1.487 3.8995 2.3905C3.8995 2.5205 3.9105 2.6455 3.9375 2.7645C2.574 2.698 1.3675 2.0445 0.557 1.049C0.4155 1.2945 0.3325 1.5755 0.3325 1.878C0.3325 2.446 0.625 2.9495 1.061 3.241C0.7975 3.236 0.539 3.1595 0.32 3.039C0.32 3.044 0.32 3.0505 0.32 3.057C0.32 3.854 0.8885 4.516 1.634 4.6685C1.5005 4.705 1.355 4.7225 1.204 4.7225C1.099 4.7225 0.993 4.7165 0.8935 4.6945C1.106 5.344 1.709 5.8215 2.426 5.837C1.868 6.2735 1.1595 6.5365 0.3925 6.5365C0.258 6.5365 0.129 6.5305 0 6.514C0.7265 6.9825 1.5875 7.25 2.516 7.25C5.534 7.25 7.184 4.75 7.184 2.583C7.184 2.5105 7.1815 2.4405 7.178 2.371C7.5035 2.14 7.777 1.8515 8 1.5195Z" fill="#7FBC00"/>
</g>
<defs>
<clipPath id="clip0">
<rect width="8" height="8" fill="white"/>
</clipPath>
</defs>
</svg>
