<?xml version="1.0" encoding="utf-8"?>
<!-- Generator: Adobe Illustrator 23.0.1, SVG Export Plug-In . SVG Version: 6.00 Build 0)  -->
<svg version="1.1" id="Layer_1" xmlns="http://www.w3.org/2000/svg" xmlns:xlink="http://www.w3.org/1999/xlink" x="0px" y="0px"
	 viewBox="0 0 10 10" style="enable-background:new 0 0 10 10;" xml:space="preserve">
<style type="text/css">
	.st0{fill:#1C3359;}
</style>
<path class="st0" d="M9.3,5.1C9.2,4.6,8.8,4.3,8.4,4.2c-1-0.1-2.1-0.1-3.2-0.1c-1.1,0-2.1,0-3.2,0.1c-0.4,0-0.8,0.4-0.9,0.8
	C1,5.7,1,6.4,1,7.1s0,1.4,0.1,2c0.1,0.4,0.5,0.8,0.9,0.8C3.1,10,4.2,10,5.2,10c1.1,0,2.1,0,3.2-0.1c0.4,0,0.8-0.4,0.9-0.8
	c0.1-0.6,0.1-1.3,0.1-2C9.4,6.4,9.4,5.7,9.3,5.1z M3.4,5.6H2.8v3.2H2.2V5.6H1.6V5h1.8V5.6z M4.9,8.8H4.4V8.5C4.2,8.7,4,8.8,3.9,8.8
	c-0.2,0-0.3-0.1-0.3-0.2c0-0.1,0-0.2,0-0.4V6H4v2.1c0,0.1,0,0.2,0,0.2C4,8.3,4,8.4,4.1,8.4c0.1,0,0.2-0.1,0.3-0.2V6h0.5L4.9,8.8z
	 M6.9,8c0,0.3,0,0.4-0.1,0.6C6.8,8.7,6.6,8.8,6.4,8.8c-0.2,0-0.4-0.1-0.5-0.3v0.3H5.4V5h0.5v1.2C6.1,6.1,6.2,6,6.4,6
	c0.2,0,0.3,0.1,0.4,0.3c0,0.1,0.1,0.3,0.1,0.6V8z M8.8,7.5h-1V8c0,0.3,0.1,0.4,0.3,0.4c0.1,0,0.2-0.1,0.2-0.2c0,0,0-0.1,0-0.3h0.5
	v0.1c0,0.2,0,0.3,0,0.3c0,0.1-0.1,0.2-0.1,0.3C8.5,8.7,8.3,8.8,8.1,8.8c-0.3,0-0.5-0.1-0.6-0.3C7.3,8.4,7.3,8.2,7.3,7.9v-1
	c0-0.3,0-0.5,0.2-0.7C7.6,6.1,7.8,6,8.1,6c0.3,0,0.5,0.1,0.6,0.3c0.1,0.1,0.2,0.4,0.2,0.7L8.8,7.5L8.8,7.5z"/>
<path class="st0" d="M8,6.4c-0.2,0-0.3,0.1-0.3,0.4v0.3h0.5V6.8C8.3,6.5,8.2,6.4,8,6.4z"/>
<path class="st0" d="M6.2,6.4c-0.1,0-0.2,0-0.3,0.1v1.7C6,8.3,6.1,8.4,6.2,8.4c0.1,0,0.2-0.1,0.2-0.4V6.8C6.4,6.5,6.3,6.4,6.2,6.4z"
	/>
<path class="st0" d="M6.4,3.9c0.2,0,0.4-0.1,0.6-0.3v0.3h0.5V1H7v2.2C6.9,3.3,6.8,3.4,6.7,3.4c-0.1,0-0.1,0-0.1-0.1c0,0,0-0.1,0-0.2
	V1H6.1v2.2c0,0.2,0,0.3,0,0.4C6.2,3.8,6.3,3.9,6.4,3.9z"/>
<path class="st0" d="M2.9,2.3v1.5h0.6V2.3L4.1,0H3.5L3.1,1.5L2.7,0H2.1c0.1,0.4,0.2,0.7,0.4,1.1C2.7,1.6,2.8,2,2.9,2.3z"/>
<path class="st0" d="M4.9,3.9c0.3,0,0.5-0.1,0.6-0.3c0.1-0.1,0.2-0.4,0.2-0.7v-1c0-0.3-0.1-0.5-0.2-0.7C5.3,1,5.1,0.9,4.9,0.9
	C4.6,0.9,4.4,1,4.3,1.2C4.2,1.4,4.1,1.6,4.1,1.9v1c0,0.3,0.1,0.5,0.2,0.7C4.4,3.8,4.6,3.9,4.9,3.9z M4.6,1.8c0-0.3,0.1-0.4,0.2-0.4
	c0.2,0,0.2,0.1,0.2,0.4V3c0,0.3-0.1,0.4-0.2,0.4C4.7,3.4,4.6,3.3,4.6,3V1.8z"/>
</svg>
