<svg width="26" height="26" viewBox="0 0 26 26" fill="none" xmlns="http://www.w3.org/2000/svg">
<path d="M11.4139 13.0143L16.659 7.67393C17.0459 7.2799 17.0402 6.64676 16.6462 6.25977C16.2522 5.87278 15.6191 5.87848 15.2321 6.2725L9.28632 12.3263C8.89933 12.7203 8.90503 13.3534 9.29906 13.7404L15.3528 19.6862C15.7468 20.0732 16.38 20.0675 16.767 19.6734C17.154 19.2794 17.1483 18.6463 16.7543 18.2593L11.4139 13.0143Z" fill="white"/>
<mask id="mask0" mask-type="alpha" maskUnits="userSpaceOnUse" x="9" y="5" width="9" height="15">
<path d="M11.4139 13.0143L16.659 7.67393C17.0459 7.2799 17.0402 6.64676 16.6462 6.25977C16.2522 5.87278 15.6191 5.87848 15.2321 6.2725L9.28632 12.3263C8.89933 12.7203 8.90503 13.3534 9.29906 13.7404L15.3528 19.6862C15.7468 20.0732 16.38 20.0675 16.767 19.6734C17.154 19.2794 17.1483 18.6463 16.7543 18.2593L11.4139 13.0143Z" fill="white"/>
</mask>
<g mask="url(#mask0)">
<rect x="25.1074" y="24.8915" width="24" height="24" transform="rotate(179.484 25.1074 24.8915)" fill="white"/>
</g>
</svg>
