<svg width="12" height="12" viewBox="0 0 12 12" fill="none" xmlns="http://www.w3.org/2000/svg">
<g clip-path="url(#clip0)">
<path d="M11.6725 8.80679L9.99788 7.13215C9.39979 6.53407 8.38305 6.77333 8.14381 7.55081C7.96439 8.08911 7.3663 8.38815 6.82803 8.26851C5.63186 7.96947 4.01703 6.41445 3.71799 5.15848C3.53857 4.62018 3.89742 4.02209 4.43569 3.84269C5.2132 3.60346 5.45244 2.58671 4.85435 1.98863L3.17972 0.313994C2.70125 -0.104665 1.98355 -0.104665 1.56489 0.313994L0.428528 1.45035C-0.707832 2.64652 0.548145 5.81637 3.35914 8.62737C6.17014 11.4384 9.33998 12.7542 10.5362 11.558L11.6725 10.4216C12.0912 9.94315 12.0912 9.22545 11.6725 8.80679Z" fill="white"/>
</g>
<defs>
<clipPath id="clip0">
<rect width="12" height="12" fill="white"/>
</clipPath>
</defs>
</svg>
