<svg width="25" height="30" viewBox="0 0 25 30" fill="none" xmlns="http://www.w3.org/2000/svg">
<path d="M22.0937 5.21607C19.8034 1.90143 16.1737 0 12.1359 0C8.09819 0 4.46849 1.90143 2.17823 5.21607C-0.100772 8.51396 -0.627002 12.6892 0.767763 16.3779C1.14083 17.3853 1.73386 18.364 2.52616 19.2811L11.3374 29.6307C11.5366 29.865 11.8286 30 12.1359 30C12.4433 30 12.7352 29.8651 12.9345 29.6307L21.7433 19.2839C22.5391 18.3615 23.1314 17.3839 23.5013 16.3846C24.8989 12.6892 24.3727 8.51396 22.0937 5.21607ZM21.537 15.65C21.2517 16.421 20.786 17.1832 20.1534 17.9164C20.1517 17.9181 20.1499 17.9199 20.1485 17.922L12.1359 27.3332L4.11845 17.9161C3.48628 17.1836 3.02052 16.4214 2.73241 15.643C1.57894 12.5923 2.01669 9.14021 3.90376 6.4091C5.79675 3.66926 8.79745 2.09789 12.1359 2.09789C15.4744 2.09789 18.4747 3.6692 20.3678 6.4091C22.2552 9.14021 22.6933 12.5923 21.537 15.65Z" fill="white"/>
<path d="M12.1359 6.22375C8.89703 6.22375 6.26172 8.85872 6.26172 12.0979C6.26172 15.3371 8.89668 17.972 12.1359 17.972C15.375 17.972 18.01 15.3371 18.01 12.0979C18.01 8.85907 15.3747 6.22375 12.1359 6.22375ZM12.1359 15.8741C10.0537 15.8741 8.35961 14.18 8.35961 12.0978C8.35961 10.0156 10.0537 8.32159 12.1359 8.32159C14.218 8.32159 15.9121 10.0156 15.9121 12.0978C15.9121 14.18 14.218 15.8741 12.1359 15.8741Z" fill="white"/>
</svg>
