<svg width="16" height="12" viewBox="0 0 16 12" fill="none" xmlns="http://www.w3.org/2000/svg">
<path d="M15.407 0H0.593054C0.265539 0 0 0.265497 0 0.593012V10.7012C0 11.0287 0.265539 11.2942 0.593054 11.2942H15.407C15.7345 11.2942 16 11.0287 16 10.7012V0.593012C16 0.265497 15.7345 0 15.407 0ZM1.18607 1.71593L5.2148 4.46475L1.18607 9.11181V1.71593ZM8.00015 4.92923L2.51431 1.18602H13.4856L8.00015 4.92923ZM6.20137 5.13779L7.66575 6.13709C7.76681 6.2057 7.88354 6.24013 8.00019 6.24013C8.11696 6.24013 8.23361 6.2057 8.33434 6.13709L9.79896 5.13779L14.1083 10.1081H1.89237L6.20137 5.13779ZM10.7855 4.46475L14.8139 1.71593V9.11118L10.7855 4.46475Z" fill="white"/>
</svg>
