<svg width="17" height="16" viewBox="0 0 17 16" fill="none" xmlns="http://www.w3.org/2000/svg">
<path d="M16.1325 6.80196L8.52999 0.138622C8.31904 -0.0462073 8.0039 -0.0462073 7.793 0.138622L0.190533 6.80196C-0.0416106 7.00543 -0.0648652 7.35864 0.138613 7.59087C0.34209 7.82297 0.695336 7.84627 0.92748 7.64274L1.51613 7.12685V15.441C1.51613 15.7497 1.76639 16 2.07514 16H6.31163H10.0113H14.2478C14.5565 16 14.8068 15.7497 14.8068 15.441V7.1269L15.3955 7.64283C15.5016 7.73576 15.633 7.78147 15.7637 7.78147C15.9191 7.78147 16.0738 7.71703 16.1843 7.59091C16.3879 7.35864 16.3646 7.00548 16.1325 6.80196ZM6.87064 14.882V10.277H9.4523V14.882L6.87064 14.882ZM13.6889 6.15128V14.882H10.5704V9.71804C10.5704 9.40933 10.3201 9.15903 10.0114 9.15903H6.31172C6.00302 9.15903 5.75272 9.40933 5.75272 9.71804V14.882H2.63419V6.15128C2.63419 6.14984 2.63401 6.1485 2.63401 6.14712L8.16149 1.30234L13.6891 6.14707C13.6891 6.14855 13.6889 6.14984 13.6889 6.15128Z" fill="white"/>
<path d="M6.91016 5.23795C6.91016 5.5467 7.16041 5.79696 7.46916 5.79696H8.85549C9.1642 5.79696 9.4145 5.5467 9.4145 5.23795C9.4145 4.9292 9.1642 4.67895 8.85549 4.67895H7.46916C7.16046 4.67895 6.91016 4.9292 6.91016 5.23795Z" fill="white"/>
</svg>
