<svg width="16" height="16" viewBox="0 0 16 16" fill="none" xmlns="http://www.w3.org/2000/svg">
<path d="M10.6055 8.08195L15.9994 11.492V4.52795L10.6055 8.08195Z" fill="white"/>
<path d="M0 4.52795V11.492L5.394 8.08195L0 4.52795Z" fill="white"/>
<path d="M14.9993 2.5H0.999297C0.500297 2.5 0.104297 2.872 0.0292969 3.351L7.9993 8.602L15.9693 3.351C15.8943 2.872 15.4983 2.5 14.9993 2.5Z" fill="white"/>
<path d="M9.6912 8.68594L8.2762 9.61794C8.1922 9.67294 8.0972 9.69994 8.0012 9.69994C7.9052 9.69994 7.8102 9.67294 7.7262 9.61794L6.3112 8.68494L0.0332031 12.6559C0.110203 13.1309 0.504203 13.4999 1.0012 13.4999H15.0012C15.4982 13.4999 15.8922 13.1309 15.9692 12.6559L9.6912 8.68594Z" fill="white"/>
</svg>
