<svg width="16" height="16" viewBox="0 0 16 16" fill="none" xmlns="http://www.w3.org/2000/svg">
<path d="M3.75 6.34375H2.51503C2.72366 3.5 5.10394 1.25 8 1.25C10.2917 1.25 12.3654 2.69344 13.1602 4.84184C13.2799 5.16556 13.6394 5.33091 13.9632 5.21119C14.2869 5.09141 14.4523 4.73191 14.3325 4.40816C13.8588 3.12766 13.0173 2.03191 11.899 1.23934C10.7549 0.428563 9.40666 0 8 0C6.19703 0 4.50194 0.702125 3.22703 1.97703C1.96875 3.23531 1.26891 4.90294 1.25084 6.67959C0.503906 7.11241 0 7.92009 0 8.84375V10.9688C0 12.3472 1.1215 13.4688 2.5 13.4688H3.75C4.09519 13.4688 4.375 13.1889 4.375 12.8438V6.96875C4.375 6.62356 4.09519 6.34375 3.75 6.34375ZM3.125 12.2188H2.5C1.81075 12.2188 1.25 11.658 1.25 10.9688V8.84375C1.25 8.1545 1.81075 7.59375 2.5 7.59375H3.125V12.2188Z" fill="white"/>
<path d="M13.5 6.34375H12.25C11.9048 6.34375 11.625 6.62356 11.625 6.96875V11.25V12.8438V13.5C11.625 13.8446 11.3446 14.125 11 14.125H9.09375V14.1448C8.88056 13.7603 8.47075 13.5 8 13.5C7.30966 13.5 6.75 14.0597 6.75 14.75C6.75 15.4403 7.30966 16 8 16C8.47075 16 8.88056 15.7397 9.09375 15.3552V15.375H11C12.0339 15.375 12.875 14.5339 12.875 13.5V13.4688H13.5C14.8785 13.4688 16 12.3472 16 10.9688V8.84375C16 7.46525 14.8785 6.34375 13.5 6.34375ZM14.75 10.9688C14.75 11.658 14.1892 12.2188 13.5 12.2188H12.875V11.25V7.59375H13.5C14.1892 7.59375 14.75 8.1545 14.75 8.84375V10.9688Z" fill="white"/>
</svg>
