<?xml version="1.0" encoding="utf-8"?>
<!-- Generator: Adobe Illustrator 23.0.1, SVG Export Plug-In . SVG Version: 6.00 Build 0)  -->
<svg version="1.1" id="Layer_1" xmlns="http://www.w3.org/2000/svg" xmlns:xlink="http://www.w3.org/1999/xlink" x="0px" y="0px"
	 viewBox="0 0 138.3 41.4" style="enable-background:new 0 0 138.3 41.4;" xml:space="preserve">
<style type="text/css">
	.st0{fill:#C4D1E6;}
	.st1{fill:#FFFFFF;}
</style>
<path class="st0" d="M96.2,0.1h-9.6l15.5,20.6L86.6,41.3h9.6l15.5-20.6L96.2,0.1z"/>
<path class="st1" d="M108.2,0.1h-12l0,0l15.5,20.6L96.2,41.3l0,0h12l14.6-20.6L108.2,0.1z"/>
<path class="st0" d="M138.2,41.3l-13.8-19.5l-6,8.5l7.6,10.9H138.2z"/>
<path class="st0" d="M138.2,0.1l-13.8,19.4l-6-8.5L126,0.1H138.2z"/>
<path class="st0" d="M17.7,22.3c-1.1,1.5-3.1,2.2-5.8,2.2c-0.6,0-7,0-7,0v7.7H0.1V9.8H12c2.8,0,4.5,0.7,5.6,2c0.9,1,1.4,2.8,1.4,5.4
	C19,19.6,18.6,21.2,17.7,22.3z M13.8,15.2C13.4,14.4,12.5,14,11,14H4.9v6.5h6c1.7,0,2.5-0.5,2.9-1.2c0.3-0.6,0.4-1.3,0.3-2
	C14.2,16.6,14.1,15.8,13.8,15.2z"/>
<path class="st0" d="M23.1,32.2h-4.9l8.5-22.4h6.1l8,22.4h-5l-1.9-5.3h-8.9L23.1,32.2z M30.2,16l-0.5-1.8L29.1,16l-2.5,6.9h5.9
	L30.2,16z"/>
<path class="st0" d="M60.7,20.4c-0.3,0.5-0.7,1-1.2,1.4c-0.5,0.4-1,0.6-1.6,0.7l5.1,9.7h-5.4l-4.3-8.7h-5.8v8.7h-4.7V9.8h12.2
	c2.8,0,4.5,0.9,5.4,2.5c0.7,1,1,2.3,1,4.2C61.6,17.9,61.3,19.2,60.7,20.4z M56.5,15.1C56.2,14.3,55.3,14,54,14h-6.4v5.6h6.7
	c1.1,0,1.9-0.3,2.2-0.9c0.2-0.6,0.3-1.1,0.3-1.7C56.8,16.3,56.7,15.7,56.5,15.1z"/>
<path class="st0" d="M70.3,24.5v7.7h-4.8V9.8h4.8v9.3l9-9.3H85l-9.4,9.8l9.7,12.6h-5.5l-7.3-9.8L70.3,24.5z"/>
</svg>
